<?xml version="1.0" standalone="no"?><!DOCTYPE svg PUBLIC "-//W3C//DTD SVG 1.1//EN" "http://www.w3.org/Graphics/SVG/1.1/DTD/svg11.dtd"><svg t="1500949387127" class="icon" style="" viewBox="0 0 1024 1024" version="1.1" xmlns="http://www.w3.org/2000/svg" p-id="2917" xmlns:xlink="http://www.w3.org/1999/xlink" width="16" height="16"><defs><style type="text/css"></style></defs><path d="M511.488 880.128c-203.264 0-368.128-165.376-368.128-368.128s164.864-368.64 368.128-368.64 368.128 165.376 368.128 368.128S714.752 880.128 511.488 880.128zM511.488 178.688c-183.808 0-333.312 150.016-333.312 333.312S328.704 844.8 511.488 844.8 844.8 694.784 844.8 512 695.808 178.688 511.488 178.688zM304.128 483.84l414.72 0c11.776 0 21.504 10.24 21.504 23.04s-9.728 23.04-21.504 23.04l-414.72 0c-11.776 0-21.504-10.24-21.504-23.04S291.84 483.84 304.128 483.84z" p-id="2918" fill="#E35757"></path></svg>