<?xml version="1.0" standalone="no"?><!DOCTYPE svg PUBLIC "-//W3C//DTD SVG 1.1//EN" "http://www.w3.org/Graphics/SVG/1.1/DTD/svg11.dtd"><svg t="1500875307772" class="icon" style="" viewBox="0 0 1024 1024" version="1.1" xmlns="http://www.w3.org/2000/svg" p-id="2501" xmlns:xlink="http://www.w3.org/1999/xlink" width="32" height="32"><defs><style type="text/css"></style></defs><path d="M960 544c0-265.152-214.848-480-480-480C214.912 64 0 278.848 0 544c0 265.088 214.912 480 480 480 265.152 0 480-214.912 480-480z m-896 0c0-229.376 186.624-416 416-416s416 186.624 416 416-186.624 416-416 416S64 773.376 64 544z" fill="#ffffff" p-id="2502"></path><path d="M704 512H512V320c0-17.664-14.336-32-32-32s-32 14.336-32 32v192H256c-17.664 0-32 14.336-32 32s14.336 32 32 32h192v192c0 17.664 14.336 32 32 32s32-14.336 32-32V576h192c17.664 0 32-14.336 32-32s-14.336-32-32-32z" fill="#ffffff" p-id="2503"></path></svg>